<svg width="48" height="42" viewBox="0 0 48 42" fill="none" xmlns="http://www.w3.org/2000/svg">
    <path d="M37.2578 6.32079C37.2578 6.56544 37.4574 6.76369 37.7036 6.76369C37.9499 6.76369 38.1494 6.56544 38.1494 6.32079C38.1494 6.07624 37.9499 5.87788 37.7036 5.87788C37.4574 5.87788 37.2578 6.07624 37.2578 6.32079Z"
          fill="#3358D4"/>
    <path d="M34.3494 1.41732C34.3494 1.66197 34.549 1.86023 34.7952 1.86023C35.0414 1.86023 35.241 1.66197 35.241 1.41732C35.241 1.17278 35.0414 0.974422 34.7952 0.974422C34.549 0.974422 34.3494 1.17278 34.3494 1.41732Z"
          fill="#3358D4"/>
    <path d="M39.7841 21.0315C39.7841 21.5382 40.1977 21.9489 40.7076 21.9489C41.2177 21.9489 41.6311 21.5382 41.6311 21.0315C41.6311 20.5249 41.2177 20.114 40.7076 20.114C40.1977 20.114 39.7841 20.5249 39.7841 21.0315Z"
          fill="#3358D4"/>
    <path d="M36.8651 16.128C36.8651 16.6347 37.2786 17.0455 37.7885 17.0455C38.2986 17.0455 38.712 16.6347 38.712 16.128C38.712 15.6214 38.2986 15.2106 37.7885 15.2106C37.2786 15.2106 36.8651 15.6214 36.8651 16.128Z"
          fill="#3358D4"/>
    <path d="M33.946 11.2244C33.946 11.7311 34.3595 12.1418 34.8695 12.1418C35.3795 12.1418 35.793 11.7311 35.793 11.2244C35.793 10.7177 35.3795 10.3069 34.8695 10.3069C34.3595 10.3069 33.946 10.7177 33.946 11.2244Z"
          fill="#3358D4"/>
    <path d="M31.0269 6.3209C31.0269 6.8276 31.4405 7.23834 31.9504 7.23834C32.4604 7.23834 32.8739 6.8276 32.8739 6.3209C32.8739 5.8142 32.4604 5.40346 31.9504 5.40346C31.4405 5.40346 31.0269 5.8142 31.0269 6.3209Z"
          fill="#3358D4"/>
    <path d="M28.1185 1.41744C28.1185 1.92414 28.532 2.33488 29.0419 2.33488C29.552 2.33488 29.9654 1.92414 29.9654 1.41744C29.9654 0.910741 29.552 0.499999 29.0419 0.499999C28.532 0.499999 28.1185 0.910741 28.1185 1.41744Z"
          fill="#3358D4"/>
    <path d="M33.1074 21.0317C33.1074 22.045 33.9343 22.8666 34.9544 22.8666C35.9744 22.8666 36.8013 22.045 36.8013 21.0317C36.8013 20.0183 35.9744 19.1968 34.9544 19.1968C33.9343 19.1968 33.1074 20.0183 33.1074 21.0317Z"
          fill="#3358D4"/>
    <path d="M30.1883 16.1282C30.1883 17.1415 31.0152 17.9631 32.0353 17.9631C33.0554 17.9631 33.8823 17.1415 33.8823 16.1282C33.8823 15.1148 33.0554 14.2933 32.0353 14.2933C31.0152 14.2933 30.1883 15.1148 30.1883 16.1282Z"
          fill="#3358D4"/>
    <path d="M27.2692 11.2245C27.2692 12.2379 28.0961 13.0594 29.1162 13.0594C30.1363 13.0594 30.9632 12.2379 30.9632 11.2245C30.9632 10.2112 30.1363 9.38961 29.1162 9.38961C28.0961 9.38961 27.2692 10.2112 27.2692 11.2245Z"
          fill="#3358D4"/>
    <path d="M24.3608 6.32078C24.3608 7.33408 25.1877 8.15566 26.2078 8.15566C27.2278 8.15566 28.0547 7.33408 28.0547 6.32078C28.0547 5.30738 27.2278 4.48589 26.2078 4.48589C25.1877 4.48589 24.3608 5.30738 24.3608 6.32078Z"
          fill="#3358D4"/>
    <path d="M22.3653 1.41744C22.3653 1.92414 22.7787 2.33488 23.2888 2.33488C23.7988 2.33488 24.2123 1.92414 24.2123 1.41744C24.2123 0.910741 23.7988 0.499999 23.2888 0.499999C22.7787 0.499999 22.3653 0.910741 22.3653 1.41744Z"
          fill="#3358D4"/>
    <path d="M27.3543 21.0317C27.3543 22.045 28.1812 22.8666 29.2012 22.8666C30.2212 22.8666 31.0482 22.045 31.0482 21.0317C31.0482 20.0183 30.2212 19.1968 29.2012 19.1968C28.1812 19.1968 27.3543 20.0183 27.3543 21.0317Z"
          fill="#3358D4"/>
    <path d="M24.4352 16.1282C24.4352 17.1415 25.2621 17.9631 26.2822 17.9631C27.3021 17.9631 28.1291 17.1415 28.1291 16.1282C28.1291 15.1148 27.3021 14.2933 26.2822 14.2933C25.2621 14.2933 24.4352 15.1148 24.4352 16.1282Z"
          fill="#3358D4"/>
    <path d="M21.5267 11.2245C21.5267 12.2379 22.3536 13.0594 23.3737 13.0594C24.3937 13.0594 25.2207 12.2379 25.2207 11.2245C25.2207 10.2112 24.3937 9.38961 23.3737 9.38961C22.3536 9.38961 21.5267 10.2112 21.5267 11.2245Z"
          fill="#3358D4"/>
    <path d="M18.6077 6.32078C18.6077 7.33408 19.4346 8.15566 20.4546 8.15566C21.4746 8.15566 22.3016 7.33408 22.3016 6.32078C22.3016 5.30738 21.4746 4.48589 20.4546 4.48589C19.4346 4.48589 18.6077 5.30738 18.6077 6.32078Z"
          fill="#3358D4"/>
    <path d="M16.6122 1.41744C16.6122 1.92414 17.0256 2.33488 17.5357 2.33488C18.0457 2.33488 18.4592 1.92414 18.4592 1.41744C18.4592 0.910741 18.0457 0.499999 17.5357 0.499999C17.0256 0.499999 16.6122 0.910741 16.6122 1.41744Z"
          fill="#3358D4"/>
    <path d="M22.5244 21.0315C22.5244 21.5382 22.9379 21.9489 23.4479 21.9489C23.9579 21.9489 24.3714 21.5382 24.3714 21.0315C24.3714 20.5249 23.9579 20.114 23.4479 20.114C22.9379 20.114 22.5244 20.5249 22.5244 21.0315Z"
          fill="#3358D4"/>
    <path d="M19.616 16.128C19.616 16.6347 20.0295 17.0455 20.5395 17.0455C21.0495 17.0455 21.4629 16.6347 21.4629 16.128C21.4629 15.6214 21.0495 15.2106 20.5395 15.2106C20.0295 15.2106 19.616 15.6214 19.616 16.128Z"
          fill="#3358D4"/>
    <path d="M16.6969 11.2244C16.6969 11.7311 17.1104 12.1418 17.6204 12.1418C18.1304 12.1418 18.5439 11.7311 18.5439 11.2244C18.5439 10.7177 18.1304 10.3069 17.6204 10.3069C17.1104 10.3069 16.6969 10.7177 16.6969 11.2244Z"
          fill="#3358D4"/>
    <path d="M13.7778 6.3209C13.7778 6.8276 14.1914 7.23834 14.7013 7.23834C15.2114 7.23834 15.6248 6.8276 15.6248 6.3209C15.6248 5.8142 15.2114 5.40346 14.7013 5.40346C14.1914 5.40346 13.7778 5.8142 13.7778 6.3209Z"
          fill="#3358D4"/>
    <path d="M11.3365 1.41732C11.3365 1.66197 11.5361 1.86023 11.7823 1.86023C12.0285 1.86023 12.2281 1.66197 12.2281 1.41732C12.2281 1.17278 12.0285 0.974421 11.7823 0.974421C11.5361 0.974421 11.3365 1.17278 11.3365 1.41732Z"
          fill="#3358D4"/>
    <path d="M17.2597 21.0315C17.2597 21.276 17.4592 21.4744 17.7055 21.4744C17.9517 21.4744 18.1513 21.276 18.1513 21.0315C18.1513 20.7868 17.9517 20.5886 17.7055 20.5886C17.4592 20.5886 17.2597 20.7868 17.2597 21.0315Z"
          fill="#3358D4"/>
    <path d="M14.3406 16.128C14.3406 16.3727 14.5402 16.5709 14.7865 16.5709C15.0326 16.5709 15.2323 16.3727 15.2323 16.128C15.2323 15.8835 15.0326 15.6851 14.7865 15.6851C14.5402 15.6851 14.3406 15.8835 14.3406 16.128Z"
          fill="#3358D4"/>
    <path d="M11.4216 11.2246C11.4216 11.4692 11.6211 11.6675 11.8674 11.6675C12.1135 11.6675 12.3132 11.4692 12.3132 11.2246C12.3132 10.9799 12.1135 10.7817 11.8674 10.7817C11.6211 10.7817 11.4216 10.9799 11.4216 11.2246Z"
          fill="#3358D4"/>
    <path d="M8.50249 6.32079C8.50249 6.56544 8.70204 6.76369 8.9483 6.76369C9.19446 6.76369 9.39413 6.56544 9.39413 6.32079C9.39413 6.07624 9.19446 5.87788 8.9483 5.87788C8.70204 5.87788 8.50249 6.07624 8.50249 6.32079Z"
          fill="#3358D4"/>
    <path d="M11.5062 21.0315C11.5062 21.276 11.7058 21.4744 11.9521 21.4744C12.1983 21.4744 12.3979 21.276 12.3979 21.0315C12.3979 20.7868 12.1983 20.5886 11.9521 20.5886C11.7058 20.5886 11.5062 20.7868 11.5062 21.0315Z"
          fill="#3358D4"/>
    <path d="M8.58715 16.128C8.58715 16.3727 8.78671 16.5709 9.03298 16.5709C9.27924 16.5709 9.4788 16.3727 9.4788 16.128C9.4788 15.8835 9.27924 15.6851 9.03298 15.6851C8.78671 15.6851 8.58715 15.8835 8.58715 16.128Z"
          fill="#3358D4"/>
    <path d="M5.66808 11.2246C5.66808 11.4692 5.86764 11.6675 6.1139 11.6675C6.36016 11.6675 6.55973 11.4692 6.55973 11.2246C6.55973 10.9799 6.36016 10.7817 6.1139 10.7817C5.86764 10.7817 5.66808 10.9799 5.66808 11.2246Z"
          fill="#3358D4"/>
    <path d="M5.75308 21.0315C5.75308 21.276 5.95264 21.4744 6.1989 21.4744C6.44506 21.4744 6.64473 21.276 6.64473 21.0315C6.64473 20.7868 6.44506 20.5886 6.1989 20.5886C5.95264 20.5886 5.75308 20.7868 5.75308 21.0315Z"
          fill="#3358D4"/>
    <path d="M2.834 16.128C2.834 16.3727 3.03356 16.5709 3.27982 16.5709C3.52598 16.5709 3.72565 16.3727 3.72565 16.128C3.72565 15.8835 3.52598 15.6851 3.27982 15.6851C3.03356 15.6851 2.834 15.8835 2.834 16.128Z"
          fill="#3358D4"/>
    <path d="M-8.9746e-07 21.0315C-9.08149e-07 21.276 0.199557 21.4744 0.445823 21.4744C0.691981 21.4744 0.891646 21.276 0.891646 21.0315C0.891646 20.7868 0.691981 20.5886 0.445823 20.5886C0.199557 20.5886 -8.86766e-07 20.7868 -8.9746e-07 21.0315Z"
          fill="#3358D4"/>
    <path d="M37.2578 35.6685C37.2578 35.9132 37.4574 36.1114 37.7036 36.1114C37.9499 36.1114 38.1494 35.9132 38.1494 35.6685C38.1494 35.424 37.9499 35.2256 37.7036 35.2256C37.4574 35.2256 37.2578 35.424 37.2578 35.6685Z"
          fill="#3358D4"/>
    <path d="M34.3494 40.5825C34.3494 40.8271 34.549 41.0253 34.7952 41.0253C35.0414 41.0253 35.241 40.8271 35.241 40.5825C35.241 40.3379 35.0414 40.1395 34.7952 40.1395C34.549 40.1395 34.3494 40.3379 34.3494 40.5825Z"
          fill="#3358D4"/>
    <path d="M39.7841 20.9577C39.7841 21.4644 40.1977 21.8751 40.7076 21.8751C41.2177 21.8751 41.6311 21.4644 41.6311 20.9577C41.6311 20.451 41.2177 20.0402 40.7076 20.0402C40.1977 20.0402 39.7841 20.451 39.7841 20.9577Z"
          fill="#3358D4"/>
    <path d="M36.8651 25.8615C36.8651 26.3681 37.2786 26.7788 37.7885 26.7788C38.2986 26.7788 38.712 26.3681 38.712 25.8615C38.712 25.3548 38.2986 24.9439 37.7885 24.9439C37.2786 24.9439 36.8651 25.3548 36.8651 25.8615Z"
          fill="#3358D4"/>
    <path d="M33.946 30.7651C33.946 31.2718 34.3595 31.6825 34.8695 31.6825C35.3795 31.6825 35.793 31.2718 35.793 30.7651C35.793 30.2584 35.3795 29.8476 34.8695 29.8476C34.3595 29.8476 33.946 30.2584 33.946 30.7651Z"
          fill="#3358D4"/>
    <path d="M31.0269 35.6686C31.0269 36.1753 31.4405 36.586 31.9504 36.586C32.4604 36.586 32.8739 36.1753 32.8739 35.6686C32.8739 35.1618 32.4604 34.7511 31.9504 34.7511C31.4405 34.7511 31.0269 35.1618 31.0269 35.6686Z"
          fill="#3358D4"/>
    <path d="M28.1184 40.5826C28.1184 41.0893 28.532 41.5 29.0419 41.5C29.552 41.5 29.9654 41.0893 29.9654 40.5826C29.9654 40.0759 29.552 39.6651 29.0419 39.6651C28.532 39.6651 28.1184 40.0759 28.1184 40.5826Z"
          fill="#3358D4"/>
    <path d="M33.1074 20.9578C33.1074 21.9712 33.9343 22.7927 34.9544 22.7927C35.9744 22.7927 36.8013 21.9712 36.8013 20.9578C36.8013 19.9444 35.9744 19.1229 34.9544 19.1229C33.9343 19.1229 33.1074 19.9444 33.1074 20.9578Z"
          fill="#3358D4"/>
    <path d="M30.1883 25.8616C30.1883 26.875 31.0152 27.6965 32.0353 27.6965C33.0554 27.6965 33.8823 26.875 33.8823 25.8616C33.8823 24.8482 33.0554 24.0267 32.0353 24.0267C31.0152 24.0267 30.1883 24.8482 30.1883 25.8616Z"
          fill="#3358D4"/>
    <path d="M27.2692 30.765C27.2692 31.7784 28.0961 32.5999 29.1162 32.5999C30.1363 32.5999 30.9632 31.7784 30.9632 30.765C30.9632 29.7516 30.1363 28.9301 29.1162 28.9301C28.0961 28.9301 27.2692 29.7516 27.2692 30.765Z"
          fill="#3358D4"/>
    <path d="M24.3608 35.6684C24.3608 36.6818 25.1877 37.5033 26.2078 37.5033C27.2278 37.5033 28.0547 36.6818 28.0547 35.6684C28.0547 34.6551 27.2278 33.8336 26.2078 33.8336C25.1877 33.8336 24.3608 34.6551 24.3608 35.6684Z"
          fill="#3358D4"/>
    <path d="M22.3653 40.5826C22.3653 41.0893 22.7787 41.5 23.2888 41.5C23.7988 41.5 24.2123 41.0893 24.2123 40.5826C24.2123 40.0759 23.7988 39.6651 23.2888 39.6651C22.7787 39.6651 22.3653 40.0759 22.3653 40.5826Z"
          fill="#3358D4"/>
    <path d="M27.3543 20.9578C27.3543 21.9712 28.1812 22.7927 29.2012 22.7927C30.2212 22.7927 31.0482 21.9712 31.0482 20.9578C31.0482 19.9444 30.2212 19.1229 29.2012 19.1229C28.1812 19.1229 27.3543 19.9444 27.3543 20.9578Z"
          fill="#3358D4"/>
    <path d="M24.4352 25.8616C24.4352 26.875 25.2621 27.6965 26.2822 27.6965C27.3021 27.6965 28.1291 26.875 28.1291 25.8616C28.1291 24.8482 27.3021 24.0267 26.2822 24.0267C25.2621 24.0267 24.4352 24.8482 24.4352 25.8616Z"
          fill="#3358D4"/>
    <path d="M21.5267 30.765C21.5267 31.7784 22.3536 32.5999 23.3737 32.5999C24.3937 32.5999 25.2207 31.7784 25.2207 30.765C25.2207 29.7516 24.3937 28.9301 23.3737 28.9301C22.3536 28.9301 21.5267 29.7516 21.5267 30.765Z"
          fill="#3358D4"/>
    <path d="M18.6077 35.6684C18.6077 36.6818 19.4346 37.5033 20.4546 37.5033C21.4746 37.5033 22.3016 36.6818 22.3016 35.6684C22.3016 34.6551 21.4746 33.8336 20.4546 33.8336C19.4346 33.8336 18.6077 34.6551 18.6077 35.6684Z"
          fill="#3358D4"/>
    <path d="M16.6122 40.5826C16.6122 41.0893 17.0256 41.5 17.5357 41.5C18.0457 41.5 18.4592 41.0893 18.4592 40.5826C18.4592 40.0759 18.0457 39.6651 17.5357 39.6651C17.0256 39.6651 16.6122 40.0759 16.6122 40.5826Z"
          fill="#3358D4"/>
    <path d="M22.5244 20.9577C22.5244 21.4644 22.9379 21.8751 23.4479 21.8751C23.9579 21.8751 24.3714 21.4644 24.3714 20.9577C24.3714 20.4509 23.9579 20.0402 23.4479 20.0402C22.9379 20.0402 22.5244 20.4509 22.5244 20.9577Z"
          fill="#3358D4"/>
    <path d="M19.616 25.8615C19.616 26.3681 20.0295 26.7788 20.5395 26.7788C21.0495 26.7788 21.4629 26.3681 21.4629 25.8615C21.4629 25.3548 21.0495 24.9439 20.5395 24.9439C20.0295 24.9439 19.616 25.3548 19.616 25.8615Z"
          fill="#3358D4"/>
    <path d="M16.6969 30.7651C16.6969 31.2718 17.1104 31.6825 17.6204 31.6825C18.1304 31.6825 18.5439 31.2718 18.5439 30.7651C18.5439 30.2584 18.1304 29.8476 17.6204 29.8476C17.1104 29.8476 16.6969 30.2584 16.6969 30.7651Z"
          fill="#3358D4"/>
    <path d="M13.7778 35.6686C13.7778 36.1752 14.1914 36.586 14.7013 36.586C15.2114 36.586 15.6248 36.1752 15.6248 35.6686C15.6248 35.1618 15.2114 34.7511 14.7013 34.7511C14.1914 34.7511 13.7778 35.1618 13.7778 35.6686Z"
          fill="#3358D4"/>
    <path d="M11.3365 40.5825C11.3365 40.8271 11.5361 41.0253 11.7823 41.0253C12.0285 41.0253 12.2281 40.8271 12.2281 40.5825C12.2281 40.3379 12.0285 40.1395 11.7823 40.1395C11.5361 40.1395 11.3365 40.3379 11.3365 40.5825Z"
          fill="#3358D4"/>
    <path d="M17.2597 20.9579C17.2597 21.2024 17.4592 21.4008 17.7055 21.4008C17.9517 21.4008 18.1513 21.2024 18.1513 20.9579C18.1513 20.7132 17.9517 20.515 17.7055 20.515C17.4592 20.515 17.2597 20.7132 17.2597 20.9579Z"
          fill="#3358D4"/>
    <path d="M14.3406 25.8613C14.3406 26.106 14.5402 26.3042 14.7865 26.3042C15.0326 26.3042 15.2323 26.106 15.2323 25.8613C15.2323 25.6167 15.0326 25.4184 14.7865 25.4184C14.5402 25.4184 14.3406 25.6167 14.3406 25.8613Z"
          fill="#3358D4"/>
    <path d="M11.4216 30.7648C11.4216 31.0094 11.6211 31.2077 11.8674 31.2077C12.1135 31.2077 12.3132 31.0094 12.3132 30.7648C12.3132 30.5201 12.1135 30.3219 11.8674 30.3219C11.6211 30.3219 11.4216 30.5201 11.4216 30.7648Z"
          fill="#3358D4"/>
    <path d="M8.50249 35.6685C8.50249 35.9132 8.70204 36.1114 8.9483 36.1114C9.19446 36.1114 9.39413 35.9132 9.39413 35.6685C9.39413 35.424 9.19446 35.2256 8.9483 35.2256C8.70204 35.2256 8.50249 35.424 8.50249 35.6685Z"
          fill="#3358D4"/>
    <path d="M11.5062 20.9579C11.5062 21.2024 11.7058 21.4008 11.9521 21.4008C12.1983 21.4008 12.3979 21.2024 12.3979 20.9579C12.3979 20.7132 12.1983 20.515 11.9521 20.515C11.7058 20.515 11.5062 20.7132 11.5062 20.9579Z"
          fill="#3358D4"/>
    <path d="M8.58715 25.8613C8.58715 26.106 8.78671 26.3042 9.03298 26.3042C9.27924 26.3042 9.4788 26.106 9.4788 25.8613C9.4788 25.6167 9.27924 25.4184 9.03298 25.4184C8.78671 25.4184 8.58715 25.6167 8.58715 25.8613Z"
          fill="#3358D4"/>
    <path d="M5.66808 30.7648C5.66808 31.0094 5.86764 31.2077 6.1139 31.2077C6.36016 31.2077 6.55973 31.0094 6.55973 30.7648C6.55973 30.5201 6.36016 30.3219 6.1139 30.3219C5.86764 30.3219 5.66808 30.5201 5.66808 30.7648Z"
          fill="#3358D4"/>
    <path d="M5.75308 20.9579C5.75308 21.2024 5.95264 21.4008 6.1989 21.4008C6.44506 21.4008 6.64473 21.2024 6.64473 20.9579C6.64473 20.7132 6.44506 20.515 6.1989 20.515C5.95264 20.515 5.75308 20.7132 5.75308 20.9579Z"
          fill="#3358D4"/>
    <path d="M2.834 25.8613C2.834 26.106 3.03356 26.3042 3.27982 26.3042C3.52598 26.3042 3.72565 26.106 3.72565 25.8613C3.72565 25.6167 3.52598 25.4184 3.27982 25.4184C3.03356 25.4184 2.834 25.6167 2.834 25.8613Z"
          fill="#3358D4"/>
    <path d="M-8.94242e-07 20.9579C-9.04931e-07 21.2024 0.199557 21.4008 0.445823 21.4008C0.691981 21.4008 0.891646 21.2024 0.891646 20.9579C0.891646 20.7132 0.691981 20.515 0.445823 20.515C0.199557 20.515 -8.83547e-07 20.7132 -8.94242e-07 20.9579Z"
          fill="#3358D4"/>
    <path d="M47.1084 20.4517C47.1084 20.6963 47.308 20.8946 47.5542 20.8946C47.8004 20.8946 48 20.6963 48 20.4517C48 20.2071 47.8004 20.0088 47.5542 20.0088C47.308 20.0088 47.1084 20.2071 47.1084 20.4517Z"
          fill="#3358D4"/>
    <path d="M44.1893 15.548C44.1893 15.7926 44.3889 15.9908 44.6351 15.9908C44.8814 15.9908 45.0809 15.7926 45.0809 15.548C45.0809 15.3034 44.8814 15.105 44.6351 15.105C44.3889 15.105 44.1893 15.3034 44.1893 15.548Z"
          fill="#3358D4"/>
    <path d="M41.2702 10.6443C41.2702 10.8889 41.4699 11.0872 41.716 11.0872C41.9623 11.0872 42.1618 10.8889 42.1618 10.6443C42.1618 10.3997 41.9623 10.2014 41.716 10.2014C41.4699 10.2014 41.2702 10.3997 41.2702 10.6443Z"
          fill="#3358D4"/>
    <path d="M47.1084 20.3778C47.1084 20.6225 47.308 20.8207 47.5542 20.8207C47.8004 20.8207 48 20.6225 48 20.3778C48 20.1333 47.8004 19.9349 47.5542 19.9349C47.308 19.9349 47.1084 20.1333 47.1084 20.3778Z"
          fill="#3358D4"/>
    <path d="M44.1893 25.2813C44.1893 25.5259 44.3889 25.7242 44.6351 25.7242C44.8814 25.7242 45.0809 25.5259 45.0809 25.2813C45.0809 25.0367 44.8814 24.8384 44.6351 24.8384C44.3889 24.8384 44.1893 25.0367 44.1893 25.2813Z"
          fill="#3358D4"/>
    <path d="M41.2702 30.185C41.2702 30.4295 41.4699 30.6279 41.716 30.6279C41.9623 30.6279 42.1618 30.4295 42.1618 30.185C42.1618 29.9403 41.9623 29.7421 41.716 29.7421C41.4699 29.7421 41.2702 29.9403 41.2702 30.185Z"
          fill="#3358D4"/>
</svg>